<svg xmlns="http://www.w3.org/2000/svg" width="436" height="231" viewBox="0 0 436 231">
  <defs>
    <style>
      .cls-1 {
        fill-rule: evenodd;
      }
    </style>
  </defs>
  <path id="Forma_1" data-name="Forma 1" class="cls-1" d="M391.467,214.4c-4.617-4.616-40.5-50.646-68.679-83.788-22.131-26.028-46.075-45.937-49.449-50.822-7.671-11.1-25.594,2.182-27.472,21.977s-5.165,63.573,8.407,64.7S292.6,130.8,304.931,140.23c12.462,9.527,20.749,18.636,13.214,34.855-8.406,18.1-58.131,56.563-76.746,46.1s-36.747-38.464-32.187-112.655S228.471,5.7,254.274,8.754c13.552,1.606,49.08,50.424,83.623,95.763,31.228,40.988,90.933,77.079,96.15,86.536C445.036,210.969,399.708,222.645,391.467,214.4ZM432.674,24.85a335.257,335.257,0,0,0-28.845,32.966c-12.262,16.226-22.783,39.62-28.845,45.328-12.821,12.07-39.147-16.483-24.725-32.966S397.774,8.271,405.553,2.316,438.468,1.031,432.674,24.85Zm-236.336,0c-2.279,15.118-1.34,195.246-28.969,196.341S97.217,135.1,85.541,114.5,66.818,81.418,60.435,103.144s-4.822,55.661-24.724,53.569S3.162,142.169,6.435,114.971,23.118-.741,51.5,2.316s78.483,119.253,93.342,122.311c7.785,1.6,13.051-21.925,16.588-47.215,3.214-22.987-7.16-49.7-6.215-58.057C157.2,1.814,201.188-7.34,196.338,24.847ZM28.966,172.907C14.213,172.746.587,186.587,0,205.094s10.89,27.2,28.968,25.75,30.846-13.358,28.968-32.187S43.718,173.068,28.966,172.907Z"/>
</svg>
